<?xml version="1.0" encoding="iso-8859-1"?>
<!-- Uploaded to: SVG Repo, www.svgrepo.com, Generator: SVG Repo Mixer Tools -->
<!DOCTYPE svg PUBLIC "-//W3C//DTD SVG 1.1//EN" "http://www.w3.org/Graphics/SVG/1.1/DTD/svg11.dtd">
<svg fill="#000000" height="800px" width="800px" version="1.1" id="Capa_1" xmlns="http://www.w3.org/2000/svg" xmlns:xlink="http://www.w3.org/1999/xlink" 
	 viewBox="0 0 463.127 463.127" xml:space="preserve">
<path d="M462.876,158.855c-0.6-2.261-2.221-4.112-4.382-5.007c-28.667-11.858-56.741-25.527-83.591-40.642l0.589-0.589
	c2.929-2.929,2.929-7.678,0-10.606l-32.526-32.527c-1.407-1.407-3.314-2.197-5.304-2.197c-1.481,0-2.917,0.439-4.135,1.244
	l-20.508-20.508c-17.177-17.177-40.013-26.909-64.301-27.403c-3.059-0.049-5.853,1.742-7.052,4.558
	c-1.2,2.816-0.568,6.079,1.596,8.244L305.842,96l-13.789,13.789c-1.406,1.406-2.196,3.314-2.196,5.303s0.79,3.897,2.196,5.303
	l1.121,1.121l-91.546,91.536L12.989,24.414c-2.076-2.076-5.172-2.748-7.922-1.725c-2.75,1.024-4.65,3.559-4.862,6.486
	C-1.202,48.603,4.671,67.72,16.74,83.005l1.044,1.322c45.599,57.744,94.611,113.667,145.982,166.586L4.666,410.013
	c-1.406,1.406-2.196,3.314-2.196,5.303s0.79,3.897,2.196,5.303l19.691,19.69c1.406,1.407,3.314,2.197,5.304,2.197
	s3.897-0.791,5.304-2.198l20.052-20.062c0.03-0.029,0.062-0.053,0.091-0.082s0.054-0.062,0.083-0.091l138.701-138.701l60.075,60.075
	c-13.394,22.714-10.346,52.515,9.142,72.004c11.19,11.191,26.069,17.354,41.896,17.354c11.879,0,23.224-3.473,32.877-9.938
	c1.208,4.868,3.707,9.478,7.505,13.275h0.001c5.395,5.395,12.566,8.366,20.195,8.366s14.802-2.971,20.195-8.365
	c5.396-5.395,8.366-12.567,8.366-20.196c0-7.629-2.971-14.801-8.365-20.196c-3.523-3.523-7.746-5.928-12.225-7.222
	c1.83-2.898,1.487-6.774-1.038-9.3c-2.93-2.929-7.678-2.929-10.607,0l-2.133,2.133l-62.51-62.51
	c9.189-7.783,23.002-7.359,31.667,1.305c2.928,2.93,7.677,2.929,10.606,0c2.929-2.929,2.929-7.678-0.001-10.606
	c-13.109-13.109-33.413-14.743-48.318-4.904l-59.302-59.302l91.541-91.541l1.12,1.12c1.465,1.464,3.385,2.197,5.304,2.197
	s3.839-0.732,5.304-2.197l1.296-1.296c15.115,26.849,28.783,54.922,40.642,83.59c0.895,2.162,2.746,3.782,5.007,4.382
	c0.635,0.168,1.281,0.251,1.924,0.251c1.646,0,3.268-0.542,4.597-1.574c27.24-21.13,51.768-45.657,72.899-72.9
	C462.986,163.528,463.475,161.116,462.876,158.855z M359.582,107.314l-29.698,29.699l-21.921-21.92l29.699-29.699L359.582,107.314z
	 M270.183,39.127c12.051,3.738,23.094,10.366,32.229,19.502l20.4,20.4l-6.363,6.363L270.183,39.127z M28.514,73.71
	c-5.725-7.25-9.722-15.565-11.815-24.373l263.366,263.365l-16.815,16.815l-66.544-66.544
	C137.597,203.864,81.359,140.631,29.558,75.032L28.514,73.71z M183.294,270.755L49.799,404.251l-9.079-9.079l133.535-133.534
	C177.259,264.689,180.275,267.724,183.294,270.755z M29.659,424.398l-9.083-9.082l9.538-9.538l9.08,9.08L29.659,424.398z
	 M273.715,402.845c-15.447-15.448-17.052-39.563-4.839-56.826l61.665,61.664C313.277,419.897,289.16,418.292,273.715,402.845z
	 M379.144,413.947c0,3.623-1.41,7.028-3.973,9.589c-2.561,2.562-5.967,3.972-9.589,3.972s-7.027-1.411-9.59-3.972h0.001
	c-5.283-5.283-5.287-13.875-0.015-19.163l0.029-0.029c5.29-5.273,13.882-5.268,19.165,0.013
	C377.734,406.919,379.144,410.325,379.144,413.947z M341.605,397.534l-62.58-62.579l7.565-7.566l62.579,62.579L341.605,397.534z
	 M221.312,232.737l-9.078-9.078l91.545-91.536l9.074,9.073L221.312,232.737z M387.129,220.321
	c-11.419-26.646-24.342-52.742-38.513-77.765c5.949-5.504,11.711-11.266,17.217-17.217c25.024,14.171,51.119,27.094,77.765,38.513
	C426.731,184.517,407.793,203.455,387.129,220.321z"/>
</svg>